<svg width="1921" height="1949" viewBox="0 0 1921 1949" fill="none" xmlns="http://www.w3.org/2000/svg">
<path d="M130 12V728.963C130 735.653 132.913 742.012 137.98 746.381L213.5 811.5" stroke="white" stroke-width="23" stroke-linecap="round"/>
<path d="M214.5 812H1011H1630.91C1636.45 812 1641.8 814.001 1645.99 817.635L1738.08 897.623C1743.11 901.991 1746 908.326 1746 914.988V986.22C1746 991.572 1747.87 996.756 1751.28 1000.88L1806.1 1067.16C1810.47 1072.44 1816.97 1075.5 1823.82 1075.5H1886C1898.7 1075.5 1909 1085.8 1909 1098.5V1766.96C1909 1773.36 1906.33 1779.47 1901.64 1783.83L1819.62 1859.87C1815.36 1863.81 1809.78 1866 1803.98 1866H22" stroke="white" stroke-width="23" stroke-linecap="round"/>
</svg>
