<svg width="1920" height="2125" viewBox="0 0 1920 2125" fill="none" xmlns="http://www.w3.org/2000/svg">
<path d="M139.5 1018H936H1555.91C1561.45 1018 1566.8 1020 1570.99 1023.64L1663.08 1103.62C1668.11 1107.99 1671 1114.33 1671 1120.99V1192.22C1671 1197.57 1672.87 1202.76 1676.28 1206.88L1731.1 1273.16C1735.47 1278.44 1741.97 1281.5 1748.82 1281.5H1811C1823.7 1281.5 1834 1291.8 1834 1304.5V1972.96C1834 1979.36 1831.33 1985.47 1826.64 1989.83L1744.62 2065.87C1740.36 2069.81 1734.78 2072 1728.98 2072H-53" stroke="white" stroke-width="23" stroke-linecap="round"/>
<path d="M55 287V934.963C55 941.653 57.9133 948.012 62.9803 952.381L138.5 1017.5" stroke="white" stroke-width="23" stroke-linecap="round"/>
</svg>
