<svg width="1831" height="986" viewBox="0 0 1831 986" fill="none" xmlns="http://www.w3.org/2000/svg">
<path d="M1865 43L1724.28 188.017C1719.94 192.481 1713.99 195 1707.77 195H1512.38C1505.49 195 1498.97 191.912 1494.6 186.586L1357.9 19.9144C1353.53 14.5879 1347.01 11.5 1340.12 11.5H164H35C22.2975 11.5 12 21.7975 12 34.5V455.959C12 462.361 14.6683 468.474 19.3631 472.826L101.384 548.867C105.637 552.809 111.222 555 117.021 555H1694.5C1707.2 555 1717.5 565.297 1717.5 578V951.5C1717.5 964.203 1727.8 974.5 1740.5 974.5H1852" stroke="white" stroke-width="23" stroke-linecap="round"/>
</svg>
