<svg width="25" height="26" viewBox="0 0 25 26" fill="none" xmlns="http://www.w3.org/2000/svg">
<path fill-rule="evenodd" clip-rule="evenodd" d="M2.08301 6.74967C2.08301 5.64461 2.52199 4.5848 3.3034 3.8034C4.0848 3.02199 5.14461 2.58301 6.24967 2.58301H18.7497C19.8547 2.58301 20.9145 3.02199 21.696 3.8034C22.4774 4.5848 22.9163 5.64461 22.9163 6.74967V19.2497C22.9163 20.3547 22.4774 21.4145 21.696 22.196C20.9145 22.9774 19.8547 23.4163 18.7497 23.4163H6.24967C5.14461 23.4163 4.0848 22.9774 3.3034 22.196C2.52199 21.4145 2.08301 20.3547 2.08301 19.2497V6.74967ZM6.24967 4.66634C5.69714 4.66634 5.16724 4.88583 4.77654 5.27654C4.38583 5.66724 4.16634 6.19714 4.16634 6.74967V19.2497C4.16634 19.8022 4.38583 20.3321 4.77654 20.7228C5.16724 21.1135 5.69714 21.333 6.24967 21.333H12.4997V14.0413H11.458C11.1817 14.0413 10.9168 13.9316 10.7214 13.7362C10.5261 13.5409 10.4163 13.2759 10.4163 12.9997C10.4163 12.7234 10.5261 12.4585 10.7214 12.2631C10.9168 12.0678 11.1817 11.958 11.458 11.958H12.4997V10.3955C12.4997 9.42857 12.8838 8.50124 13.5675 7.81751C14.2512 7.13379 15.1786 6.74967 16.1455 6.74967H16.7705C17.0468 6.74967 17.3117 6.85942 17.5071 7.05477C17.7024 7.25012 17.8122 7.51507 17.8122 7.79134C17.8122 8.06761 17.7024 8.33256 17.5071 8.52791C17.3117 8.72326 17.0468 8.83301 16.7705 8.83301H16.1455C15.9403 8.83301 15.7371 8.87342 15.5476 8.95195C15.358 9.03047 15.1857 9.14556 15.0407 9.29065C14.8956 9.43574 14.7805 9.60799 14.7019 9.79756C14.6234 9.98714 14.583 10.1903 14.583 10.3955V11.958H16.7705C17.0468 11.958 17.3117 12.0678 17.5071 12.2631C17.7024 12.4585 17.8122 12.7234 17.8122 12.9997C17.8122 13.2759 17.7024 13.5409 17.5071 13.7362C17.3117 13.9316 17.0468 14.0413 16.7705 14.0413H14.583V21.333H18.7497C19.3022 21.333 19.8321 21.1135 20.2228 20.7228C20.6135 20.3321 20.833 19.8022 20.833 19.2497V6.74967C20.833 6.19714 20.6135 5.66724 20.2228 5.27654C19.8321 4.88583 19.3022 4.66634 18.7497 4.66634H6.24967Z" fill="white"/>
</svg>
