<svg width="1880" height="4944" viewBox="0 0 1880 4944" fill="none" xmlns="http://www.w3.org/2000/svg">
<path d="M12 12V728.963C12 735.653 14.9133 742.012 19.9803 746.381L95.5 811.5" stroke="white" stroke-width="23" stroke-linecap="round"/>
<path d="M1951.5 1091.5H1709.82C1702.97 1091.5 1696.47 1088.44 1692.1 1083.16L1637.28 1016.88C1633.87 1012.76 1632 1007.57 1632 1002.22V930.988C1632 924.326 1629.11 917.991 1624.08 913.623L1531.99 833.635C1527.8 830.001 1522.45 828 1516.91 828H227.5H123.098C117.554 828 112.195 825.997 108.01 822.359L61 781.5" stroke="white" stroke-width="23" stroke-linecap="round"/>
<path d="M27 2801V4834.47C27 4840.57 29.4232 4846.42 33.7365 4850.74L108.763 4925.76C113.077 4930.08 118.927 4932.5 125.027 4932.5H1992.5" stroke="white" stroke-width="23" stroke-linecap="round"/>
</svg>
