<svg width="25" height="26" viewBox="0 0 25 26" fill="none" xmlns="http://www.w3.org/2000/svg">
<path d="M8.12467 2.58301H16.8747C20.208 2.58301 22.9163 5.29134 22.9163 8.62467V17.3747C22.9163 18.977 22.2798 20.5137 21.1468 21.6468C20.0137 22.7798 18.477 23.4163 16.8747 23.4163H8.12467C4.79134 23.4163 2.08301 20.708 2.08301 17.3747V8.62467C2.08301 7.02233 2.71954 5.4856 3.85257 4.35257C4.9856 3.21954 6.52233 2.58301 8.12467 2.58301ZM7.91634 4.66634C6.92178 4.66634 5.96795 5.06143 5.26469 5.76469C4.56143 6.46795 4.16634 7.42178 4.16634 8.41634V17.583C4.16634 19.6559 5.84342 21.333 7.91634 21.333H17.083C18.0776 21.333 19.0314 20.9379 19.7347 20.2347C20.4379 19.5314 20.833 18.5776 20.833 17.583V8.41634C20.833 6.34342 19.1559 4.66634 17.083 4.66634H7.91634ZM17.9684 6.22884C18.3138 6.22884 18.6449 6.36602 18.8891 6.61021C19.1333 6.8544 19.2705 7.18559 19.2705 7.53092C19.2705 7.87626 19.1333 8.20745 18.8891 8.45164C18.6449 8.69582 18.3138 8.83301 17.9684 8.83301C17.6231 8.83301 17.2919 8.69582 17.0477 8.45164C16.8035 8.20745 16.6663 7.87626 16.6663 7.53092C16.6663 7.18559 16.8035 6.8544 17.0477 6.61021C17.2919 6.36602 17.6231 6.22884 17.9684 6.22884ZM12.4997 7.79134C13.881 7.79134 15.2058 8.34007 16.1825 9.31683C17.1593 10.2936 17.708 11.6183 17.708 12.9997C17.708 14.381 17.1593 15.7058 16.1825 16.6825C15.2058 17.6593 13.881 18.208 12.4997 18.208C11.1183 18.208 9.79358 17.6593 8.81683 16.6825C7.84007 15.7058 7.29134 14.381 7.29134 12.9997C7.29134 11.6183 7.84007 10.2936 8.81683 9.31683C9.79358 8.34007 11.1183 7.79134 12.4997 7.79134ZM12.4997 9.87467C11.6709 9.87467 10.876 10.2039 10.29 10.79C9.70391 11.376 9.37467 12.1709 9.37467 12.9997C9.37467 13.8285 9.70391 14.6233 10.29 15.2094C10.876 15.7954 11.6709 16.1247 12.4997 16.1247C13.3285 16.1247 14.1233 15.7954 14.7094 15.2094C15.2954 14.6233 15.6247 13.8285 15.6247 12.9997C15.6247 12.1709 15.2954 11.376 14.7094 10.79C14.1233 10.2039 13.3285 9.87467 12.4997 9.87467Z" fill="white"/>
</svg>
