<svg width="32" height="32" viewBox="0 0 32 32" fill="none" xmlns="http://www.w3.org/2000/svg">
<path d="M10.54 3H21.46C25.62 3 29 6.38 29 10.54V21.46C29 23.4597 28.2056 25.3776 26.7916 26.7916C25.3776 28.2056 23.4597 29 21.46 29H10.54C6.38 29 3 25.62 3 21.46V10.54C3 8.54027 3.79439 6.62244 5.20842 5.20842C6.62244 3.79439 8.54027 3 10.54 3ZM10.28 5.6C9.03879 5.6 7.84841 6.09307 6.97074 6.97074C6.09307 7.84841 5.6 9.03879 5.6 10.28V21.72C5.6 24.307 7.693 26.4 10.28 26.4H21.72C22.9612 26.4 24.1516 25.9069 25.0293 25.0293C25.9069 24.1516 26.4 22.9612 26.4 21.72V10.28C26.4 7.693 24.307 5.6 21.72 5.6H10.28ZM22.825 7.55C23.256 7.55 23.6693 7.7212 23.974 8.02595C24.2788 8.3307 24.45 8.74402 24.45 9.175C24.45 9.60598 24.2788 10.0193 23.974 10.324C23.6693 10.6288 23.256 10.8 22.825 10.8C22.394 10.8 21.9807 10.6288 21.6759 10.324C21.3712 10.0193 21.2 9.60598 21.2 9.175C21.2 8.74402 21.3712 8.3307 21.6759 8.02595C21.9807 7.7212 22.394 7.55 22.825 7.55ZM16 9.5C17.7239 9.5 19.3772 10.1848 20.5962 11.4038C21.8152 12.6228 22.5 14.2761 22.5 16C22.5 17.7239 21.8152 19.3772 20.5962 20.5962C19.3772 21.8152 17.7239 22.5 16 22.5C14.2761 22.5 12.6228 21.8152 11.4038 20.5962C10.1848 19.3772 9.5 17.7239 9.5 16C9.5 14.2761 10.1848 12.6228 11.4038 11.4038C12.6228 10.1848 14.2761 9.5 16 9.5ZM16 12.1C14.9657 12.1 13.9737 12.5109 13.2423 13.2423C12.5109 13.9737 12.1 14.9657 12.1 16C12.1 17.0343 12.5109 18.0263 13.2423 18.7577C13.9737 19.4891 14.9657 19.9 16 19.9C17.0343 19.9 18.0263 19.4891 18.7577 18.7577C19.4891 18.0263 19.9 17.0343 19.9 16C19.9 14.9657 19.4891 13.9737 18.7577 13.2423C18.0263 12.5109 17.0343 12.1 16 12.1Z" fill="#A7C986"/>
</svg>
