<svg width="25" height="26" viewBox="0 0 25 26" fill="none" xmlns="http://www.w3.org/2000/svg">
<path fill-rule="evenodd" clip-rule="evenodd" d="M6.24967 2.58301C5.14461 2.58301 4.0848 3.02199 3.3034 3.8034C2.52199 4.5848 2.08301 5.64461 2.08301 6.74967V19.2497C2.08301 20.3547 2.52199 21.4145 3.3034 22.196C4.0848 22.9774 5.14461 23.4163 6.24967 23.4163H18.7497C19.8547 23.4163 20.9145 22.9774 21.696 22.196C22.4774 21.4145 22.9163 20.3547 22.9163 19.2497V6.74967C22.9163 5.64461 22.4774 4.5848 21.696 3.8034C20.9145 3.02199 19.8547 2.58301 18.7497 2.58301H6.24967ZM4.16634 6.74967C4.16634 6.19714 4.38583 5.66724 4.77654 5.27654C5.16724 4.88583 5.69714 4.66634 6.24967 4.66634H18.7497C19.3022 4.66634 19.8321 4.88583 20.2228 5.27654C20.6135 5.66724 20.833 6.19714 20.833 6.74967V19.2497C20.833 19.8022 20.6135 20.3321 20.2228 20.7228C19.8321 21.1135 19.3022 21.333 18.7497 21.333H6.24967C5.69714 21.333 5.16724 21.1135 4.77654 20.7228C4.38583 20.3321 4.16634 19.8022 4.16634 19.2497V6.74967ZM9.37467 11.958C9.37467 11.6817 9.26493 11.4168 9.06958 11.2214C8.87423 11.0261 8.60927 10.9163 8.33301 10.9163C8.05674 10.9163 7.79179 11.0261 7.59644 11.2214C7.40109 11.4168 7.29134 11.6817 7.29134 11.958V18.208C7.29134 18.4843 7.40109 18.7492 7.59644 18.9446C7.79179 19.1399 8.05674 19.2497 8.33301 19.2497C8.60927 19.2497 8.87423 19.1399 9.06958 18.9446C9.26493 18.7492 9.37467 18.4843 9.37467 18.208V11.958ZM9.89551 8.31217C9.89551 8.72657 9.73089 9.124 9.43786 9.41703C9.14484 9.71005 8.74741 9.87467 8.33301 9.87467C7.91861 9.87467 7.52118 9.71005 7.22815 9.41703C6.93513 9.124 6.77051 8.72657 6.77051 8.31217C6.77051 7.89777 6.93513 7.50035 7.22815 7.20732C7.52118 6.91429 7.91861 6.74967 8.33301 6.74967C8.74741 6.74967 9.14484 6.91429 9.43786 7.20732C9.73089 7.50035 9.89551 7.89777 9.89551 8.31217ZM12.4997 10.9163C12.8538 10.9163 13.1663 11.0934 13.3538 11.3622C13.8907 11.0696 14.4924 10.9163 15.1038 10.9163C17.3538 10.9163 18.7497 12.9226 18.7497 14.6361V18.208C18.7497 18.4843 18.6399 18.7492 18.4446 18.9446C18.2492 19.1399 17.9843 19.2497 17.708 19.2497C17.4317 19.2497 17.1668 19.1399 16.9714 18.9446C16.7761 18.7492 16.6663 18.4843 16.6663 18.208V14.6351C16.6663 13.8351 15.9788 12.9986 15.1038 12.9986C14.558 12.9986 13.9549 13.2955 13.5413 14.0018V18.208C13.5413 18.4843 13.4316 18.7492 13.2362 18.9446C13.0409 19.1399 12.7759 19.2497 12.4997 19.2497C12.2234 19.2497 11.9585 19.1399 11.7631 18.9446C11.5678 18.7492 11.458 18.4843 11.458 18.208V11.958C11.458 11.6817 11.5678 11.4168 11.7631 11.2214C11.9585 11.0261 12.2234 10.9163 12.4997 10.9163Z" fill="white"/>
</svg>
