<svg width="87" height="62" viewBox="0 0 87 62" fill="none" xmlns="http://www.w3.org/2000/svg">
<path d="M4.82373 5.26196V57.2308H80.7812V5.26196H4.82373ZM77.1517 53.7529H8.91686V8.73982H77.1517V53.7529Z" fill="white"/>
<path d="M44.8799 11.3464L56.0841 7.03597L70.6612 5.68066L72.0008 8.46156L47.455 17.9121L44.8799 11.3464ZM46.2344 14.7985L53.7789 11.8949L63.8085 37.4674L58.7732 46.7665L46.2344 14.7985Z" fill="white"/>
<path d="M16.3086 26.6446L27.5208 55.2278H36.2039L32.916 46.8465L44.5181 42.3836L49.5604 33.0727L46.2685 24.6805L39.7527 27.1871L41.7591 32.3034L39.2179 36.996L30.3849 40.3937L24.9227 26.4694L34.0926 22.942L31.5615 16.4893L19.2406 21.2284L16.3086 26.6446Z" fill="white"/>
<path d="M43.6423 11.8413L32.9385 15.9592L37.0967 26.5595L47.8005 22.4416L43.6423 11.8413Z" fill="#F5812E"/>
</svg>
