<svg width="102" height="116" viewBox="0 0 102 116" fill="none" xmlns="http://www.w3.org/2000/svg">
<path d="M99.842 58.5685C100.423 59.011 100.015 59.935 99.2963 59.8036L65.6111 53.6375C65.349 53.5895 65.0826 53.6958 64.9255 53.9109L43.9446 82.646C43.5049 83.2482 42.5546 82.8283 42.7038 82.0978L49.8209 47.2374C49.8742 46.9763 49.7734 46.7078 49.5614 46.5463L22.3208 25.7939C21.74 25.3515 22.1483 24.4274 22.8665 24.5589L56.5516 30.725C56.8137 30.773 57.0802 30.6667 57.2373 30.4515L78.2182 1.7164C78.6579 1.11428 79.6081 1.53414 79.459 2.26462L72.3419 37.1251C72.2886 37.3861 72.3894 37.6547 72.6014 37.8161L99.842 58.5685Z" fill="#A7C986"/>
<path d="M30.911 98.135C31.62 98.3096 31.6135 99.3198 30.9024 99.4852L20.4484 101.918C20.1889 101.978 19.9869 102.182 19.9285 102.442L17.505 113.227C17.3415 113.955 16.3026 113.948 16.1485 113.219L13.8628 102.403C13.8078 102.142 13.6083 101.936 13.3496 101.872L2.92753 99.3067C2.21856 99.1322 2.225 98.122 2.93615 97.9566L13.3901 95.5242C13.6496 95.4638 13.8517 95.2602 13.9101 95.0002L16.3335 84.2145C16.497 83.4871 17.5359 83.4937 17.69 84.2231L19.9757 95.0389C20.0308 95.2996 20.2302 95.5058 20.4889 95.5695L30.911 98.135Z" fill="#A7C986"/>
</svg>
