<svg width="23" height="31" viewBox="0 0 23 31" fill="none" xmlns="http://www.w3.org/2000/svg">
<path d="M21.2065 21.5897C21.7808 22.033 21.3761 22.9491 20.6617 22.8229L13.1372 21.4941C12.8749 21.4478 12.6093 21.5555 12.4535 21.7715L7.80609 28.212C7.36732 28.8201 6.40969 28.3969 6.56379 27.6631L8.19609 19.8905C8.25082 19.6298 8.15165 19.3609 7.94084 19.1982L1.8918 14.5299C1.31748 14.0867 1.72224 13.1706 2.43665 13.2968L9.96114 14.6256C10.2234 14.6719 10.489 14.5641 10.6448 14.3482L15.2922 7.90767C15.731 7.29961 16.6886 7.72272 16.5345 8.45655L14.9022 16.2292C14.8475 16.4898 14.9467 16.7588 15.1575 16.9214L21.2065 21.5897Z" fill="#A7C986"/>
<path d="M11.0377 6.32349C11.7571 6.48785 11.7571 7.51264 11.0377 7.67699L8.72682 8.20493C8.46697 8.26429 8.26405 8.46721 8.20468 8.72707L7.67675 11.038C7.51239 11.7574 6.48761 11.7574 6.32325 11.0379L5.79532 8.72707C5.73595 8.46721 5.53304 8.26429 5.27318 8.20493L2.96229 7.67699C2.24285 7.51263 2.24286 6.48785 2.9623 6.32349L5.27318 5.79556C5.53304 5.7362 5.73595 5.53328 5.79532 5.27342L6.32325 2.96254C6.48761 2.2431 7.51239 2.2431 7.67675 2.96254L8.20468 5.27342C8.26405 5.53328 8.46696 5.7362 8.72682 5.79556L11.0377 6.32349Z" fill="#A7C986"/>
</svg>
