<svg width="96" height="132" viewBox="0 0 96 132" fill="none" xmlns="http://www.w3.org/2000/svg">
<path d="M87.5893 61.5856C88.1701 62.0281 87.7618 62.9521 87.0436 62.8206L53.8164 56.7384C53.5543 56.6904 53.2879 56.7967 53.1307 57.0119L32.4362 85.3547C31.9965 85.9569 31.0462 85.537 31.1954 84.8065L38.2153 50.4219C38.2686 50.1608 38.1678 49.8923 37.9559 49.7308L11.0856 29.2606C10.5048 28.8181 10.9131 27.8941 11.6313 28.0255L44.8585 34.1078C45.1206 34.1558 45.387 34.0495 45.5441 33.8343L66.2387 5.49141C66.6783 4.88929 67.6286 5.30916 67.4795 6.03963L60.4595 40.4243C60.4062 40.6853 60.5071 40.9539 60.719 41.1153L87.5893 61.5856Z" fill="#A7C986"/>
<path d="M82.7448 100.849C83.4749 100.861 83.6935 101.847 83.037 102.167L69.9287 108.549C69.6891 108.665 69.5375 108.909 69.5384 109.175L69.5904 124.242C69.593 124.987 68.5787 125.212 68.2661 124.535L61.9478 110.858C61.8361 110.616 61.5957 110.459 61.3293 110.455L46.7521 110.208C46.0221 110.196 45.8035 109.21 46.46 108.89L59.5682 102.508C59.8078 102.391 59.9595 102.148 59.9585 101.882L59.9065 86.8151C59.9039 86.0696 60.9182 85.8448 61.2309 86.5216L67.5491 100.199C67.6609 100.441 67.9012 100.598 68.1676 100.602L82.7448 100.849Z" fill="#A7C986"/>
</svg>
