<svg width="24" height="24" viewBox="0 0 24 24" fill="none" xmlns="http://www.w3.org/2000/svg">
<path d="M17.5 9.14132C17.0952 9.31732 16.6607 9.43832 16.2042 9.49112C16.6706 9.21612 17.027 8.78052 17.1964 8.26242C16.752 8.52143 16.267 8.70365 15.762 8.80142C15.5496 8.57875 15.294 8.40169 15.0109 8.28103C14.7278 8.16037 14.4231 8.09865 14.1153 8.09962C12.869 8.09962 11.8592 9.09512 11.8592 10.3216C11.8592 10.4954 11.879 10.6648 11.9175 10.8276C11.0236 10.7852 10.1483 10.5568 9.34751 10.1572C8.54674 9.75759 7.83807 9.19544 7.2667 8.50662C7.06602 8.84443 6.96036 9.2302 6.9609 9.62312C6.9609 10.3931 7.3602 11.0751 7.9652 11.4722C7.60709 11.461 7.25665 11.3657 6.9422 11.1939V11.2214C6.9456 11.7378 7.12788 12.2371 7.45801 12.6342C7.78814 13.0313 8.2457 13.3017 8.7528 13.3994C8.41989 13.4874 8.07156 13.5002 7.7331 13.4368C7.88064 13.8811 8.16284 14.2684 8.54053 14.5449C8.91821 14.8215 9.37263 14.9736 9.8407 14.9801C9.03766 15.5989 8.0517 15.9333 7.0379 15.9305C6.8564 15.9305 6.6771 15.9195 6.5 15.8997C7.53452 16.5545 8.73406 16.9014 9.9584 16.8996C14.1098 16.8996 16.3791 13.5138 16.3791 10.5768L16.3714 10.2886C16.8139 9.97763 17.1963 9.58889 17.5 9.14132Z" fill="white"/>
<path d="M5.4 3.7C4.81652 3.7 4.25695 3.93179 3.84437 4.34437C3.43179 4.75695 3.2 5.31652 3.2 5.9V19.1C3.2 19.6835 3.43179 20.2431 3.84437 20.6556C4.25695 21.0682 4.81652 21.3 5.4 21.3H18.6C19.1835 21.3 19.7431 21.0682 20.1556 20.6556C20.5682 20.2431 20.8 19.6835 20.8 19.1V5.9C20.8 5.31652 20.5682 4.75695 20.1556 4.34437C19.7431 3.93179 19.1835 3.7 18.6 3.7H5.4ZM5.4 1.5H18.6C19.767 1.5 20.8861 1.96357 21.7113 2.78873C22.5364 3.61389 23 4.73305 23 5.9V19.1C23 20.267 22.5364 21.3861 21.7113 22.2113C20.8861 23.0364 19.767 23.5 18.6 23.5H5.4C4.23305 23.5 3.11389 23.0364 2.28873 22.2113C1.46357 21.3861 1 20.267 1 19.1V5.9C1 4.73305 1.46357 3.61389 2.28873 2.78873C3.11389 1.96357 4.23305 1.5 5.4 1.5Z" fill="white"/>
</svg>
