<svg width="265" height="400" viewBox="0 0 265 400" fill="none" xmlns="http://www.w3.org/2000/svg">
<path d="M0 10.7936C0 4.83248 5.24467 0 11.7143 0H130.009C133.093 0 136.052 1.12027 138.245 3.11778L164.521 27.0532C166.747 29.0809 168 31.845 168 34.7291V262.206C168 268.168 162.755 273 156.286 273H11.7143C5.24467 273 0 268.168 0 262.206V10.7936Z" fill="#F5812E"/>
<path d="M71 114C71 102.954 79.9543 94 91 94H213.565C219.225 94 224.621 96.3986 228.413 100.601L259.848 135.436C263.164 139.111 265 143.885 265 148.835V380C265 391.046 256.046 400 245 400H91C79.9543 400 71 391.046 71 380V114Z" fill="#A7C986"/>
<rect x="38.5" y="74.5" width="111" height="117" rx="18.5" stroke="white" stroke-width="3"/>
</svg>
