<svg width="627" height="1062" viewBox="0 0 627 1062" fill="none" xmlns="http://www.w3.org/2000/svg">
<path d="M-38 41C-38 18.3563 -19.6437 0 3 0H417.033C427.825 0 438.182 4.2554 445.857 11.843L537.825 102.763C545.616 110.465 550 120.964 550 131.92V996C550 1018.64 531.644 1037 509 1037H3C-19.6437 1037 -38 1018.64 -38 996V41Z" fill="#F5812E"/>
<path d="M-16.5 108.358C-16.5 97.3978 -7.60847 88.5 3.37585 88.5H350.515C355.75 88.5 360.772 90.5629 364.492 94.2387L441.6 170.429C445.376 174.16 447.5 179.244 447.5 184.548V908.642C447.5 919.602 438.608 928.5 427.624 928.5H3.37585C-7.6085 928.5 -16.5 919.602 -16.5 908.642V108.358Z" stroke="white" stroke-width="29"/>
<path d="M146.5 331.088C146.5 316.771 159.654 304.5 176.748 304.5H517.551C525.633 304.5 533.322 307.345 538.963 312.317L614.664 379.038C620.377 384.073 623.5 390.844 623.5 397.809V1031.91C623.5 1046.23 610.346 1058.5 593.252 1058.5H176.748C159.654 1058.5 146.5 1046.23 146.5 1031.91V331.088Z" stroke="#A7C986" stroke-width="7"/>
</svg>
