<svg width="562" height="1096" viewBox="0 0 562 1096" fill="none" xmlns="http://www.w3.org/2000/svg">
<path d="M825 43.3327C825 19.4007 803.74 0 777.515 0H297.998C285.498 0 273.503 4.49751 264.614 12.5168L158.101 108.609C149.078 116.75 144 127.847 144 139.425V1052.67C144 1076.6 165.26 1096 191.485 1096H777.515C803.74 1096 825 1076.6 825 1052.67V43.3327Z" fill="#F5812E"/>
<path d="M42.5 385.213C42.5 384.32 43.0415 381.747 47.5501 378.736C51.9595 375.792 58.8844 373.5 67.2568 373.5H463.686C471.683 373.5 478.706 375.642 483.297 378.673L571.354 436.802C576.014 439.878 576.5 442.553 576.5 443.342V995.787C576.5 996.68 575.958 999.253 571.45 1002.26C567.041 1005.21 560.116 1007.5 551.743 1007.5H67.2568C58.8844 1007.5 51.9595 1005.21 47.5501 1002.26C43.0415 999.253 42.5 996.68 42.5 995.787V385.213Z" stroke="white" stroke-width="29"/>
<path d="M587.5 99.1639C587.5 95.6756 584.506 91.5307 577.392 88.0497C570.509 84.682 560.755 82.5 549.791 82.5H133.646C123.19 82.5 113.328 84.5262 106.198 87.9752L13.7614 132.69C6.33154 136.284 3.5 140.542 3.5 143.878V568.836C3.5 572.324 6.49402 576.469 13.6082 579.95C20.4908 583.318 30.2448 585.5 41.2092 585.5H549.791C560.755 585.5 570.509 583.318 577.392 579.95C584.506 576.469 587.5 572.324 587.5 568.836V99.1639Z" stroke="#A7C986" stroke-width="7"/>
</svg>
