<svg width="67" height="765" viewBox="0 0 67 765" fill="none" xmlns="http://www.w3.org/2000/svg">
<path d="M38.7538 16.8196C38.9238 16.1095 39.934 16.1095 40.104 16.8196L43.4986 30.9983C43.5606 31.2574 43.7655 31.4581 44.0258 31.5149L58.7466 34.724C59.475 34.8828 59.475 35.9217 58.7466 36.0805L44.0258 39.2896C43.7655 39.3464 43.5606 39.5472 43.4986 39.8063L40.104 53.9849C39.934 54.695 38.9238 54.695 38.7538 53.9849L35.3593 39.8063C35.2973 39.5472 35.0924 39.3464 34.8321 39.2896L20.1113 36.0805C19.3828 35.9217 19.3828 34.8828 20.1113 34.724L34.8321 31.5149C35.0924 31.4581 35.2973 31.2574 35.3593 30.9983L38.7538 16.8196Z" fill="#A7C986"/>
<path d="M21.7538 260.82C21.9238 260.11 22.934 260.11 23.104 260.82L26.4986 274.998C26.5606 275.258 26.7655 275.458 27.0258 275.515L41.7466 278.724C42.475 278.883 42.475 279.922 41.7466 280.081L27.0258 283.29C26.7655 283.347 26.5606 283.547 26.4986 283.807L23.104 297.985C22.934 298.695 21.9238 298.695 21.7538 297.985L18.3593 283.807C18.2973 283.547 18.0924 283.347 17.8321 283.29L3.11127 280.081C2.38283 279.922 2.38283 278.883 3.11127 278.724L17.8321 275.515C18.0924 275.458 18.2973 275.258 18.3593 274.998L21.7538 260.82Z" fill="#F5812E"/>
<path d="M21.7538 708.82C21.9238 708.11 22.934 708.11 23.104 708.82L26.4986 722.998C26.5606 723.258 26.7655 723.458 27.0258 723.515L41.7466 726.724C42.475 726.883 42.475 727.922 41.7466 728.081L27.0258 731.29C26.7655 731.347 26.5606 731.547 26.4986 731.807L23.104 745.985C22.934 746.695 21.9238 746.695 21.7538 745.985L18.3593 731.807C18.2973 731.547 18.0924 731.347 17.8321 731.29L3.11127 728.081C2.38283 727.922 2.38283 726.883 3.11127 726.724L17.8321 723.515C18.0924 723.458 18.2973 723.258 18.3593 722.998L21.7538 708.82Z" fill="#F5812E"/>
<path d="M43.7538 484.82C43.9238 484.11 44.934 484.11 45.104 484.82L48.4986 498.998C48.5606 499.258 48.7655 499.458 49.0258 499.515L63.7466 502.724C64.475 502.883 64.475 503.922 63.7466 504.081L49.0258 507.29C48.7655 507.347 48.5606 507.547 48.4986 507.807L45.104 521.985C44.934 522.695 43.9238 522.695 43.7538 521.985L40.3593 507.807C40.2973 507.547 40.0924 507.347 39.8321 507.29L25.1113 504.081C24.3828 503.922 24.3828 502.883 25.1113 502.724L39.8321 499.515C40.0924 499.458 40.2973 499.258 40.3593 498.998L43.7538 484.82Z" fill="#A7C986"/>
<path d="M33.1668 3L14.1435 18.6641C11.8365 20.5637 10.5 23.3955 10.5 26.3838L10.5 43.0178C10.5 45.5714 11.4769 48.0282 13.2304 49.8846L30.4365 68.1002C32.1899 69.9565 33.1668 72.4133 33.1668 74.9669L33.1668 240.349C33.1668 243.233 34.4117 245.976 36.5819 247.875L50.6405 260.176C52.8107 262.075 54.0555 264.818 54.0555 267.702L54.0555 292.746C54.0555 295.848 52.6168 298.773 50.1606 300.667L37.0617 310.764C34.6056 312.657 33.1668 315.583 33.1668 318.684L33.1668 464.56C33.1668 467.636 31.751 470.541 29.3279 472.437L14.2676 484.217C11.8851 486.08 10.4742 488.922 10.4297 491.946L10.0733 516.179C10.0271 519.318 11.4578 522.296 13.9368 524.222L29.3023 536.161C31.7405 538.055 33.1668 540.97 33.1668 544.058L33.1668 685.996C33.1668 688.954 34.477 691.761 36.7449 693.661L50.4774 705.166C52.7454 707.066 54.0555 709.873 54.0555 712.831L54.0555 739.3C54.0555 742.163 52.8287 744.888 50.6856 746.786L33.1668 762.302" stroke="white" stroke-width="7"/>
</svg>
