<svg width="485" height="910" viewBox="0 0 485 910" fill="none" xmlns="http://www.w3.org/2000/svg">
<rect x="353.5" y="169.5" width="248" height="242" rx="11.5" stroke="white" stroke-width="23"/>
<path d="M683.5 35.9788C683.5 27.39 678.873 19.3492 670.868 13.3365C662.861 7.32281 651.64 3.5 639.097 3.5H155.355C143.395 3.5 132.051 7.04925 123.763 13.2027L16.3116 92.9874C7.91772 99.22 3.5 107.465 3.5 115.764V874.021C3.5 882.61 8.12689 890.651 16.1324 896.663C24.1392 902.677 35.3602 906.5 47.9031 906.5H639.097C651.64 906.5 662.861 902.677 670.868 896.664C678.873 890.651 683.5 882.61 683.5 874.021V35.9788Z" stroke="#A7C986" stroke-width="7"/>
</svg>
