<svg width="729" height="910" viewBox="0 0 729 910" fill="none" xmlns="http://www.w3.org/2000/svg">
<path d="M683.5 35.9788C683.5 27.39 678.873 19.3492 670.868 13.3365C662.861 7.32281 651.64 3.5 639.097 3.5H155.355C143.395 3.5 132.051 7.04925 123.763 13.2027L16.3116 92.9874C7.91772 99.22 3.5 107.465 3.5 115.764V874.021C3.5 882.61 8.12689 890.651 16.1324 896.663C24.1392 902.677 35.3602 906.5 47.9031 906.5H639.097C651.64 906.5 662.861 902.677 670.868 896.664C678.873 890.651 683.5 882.61 683.5 874.021V35.9788Z" stroke="#A7C986" stroke-width="7"/>
<path d="M374 408V203C374 190.297 384.297 180 397 180H694C706.703 180 717 190.297 717 203V408C717 420.703 706.703 431 694 431H397C384.297 431 374 420.703 374 408Z" stroke="white" stroke-width="23" stroke-linecap="round"/>
</svg>
