<svg width="284" height="646" viewBox="0 0 284 646" fill="none" xmlns="http://www.w3.org/2000/svg">
<path d="M284 308.878C284 301.213 275.852 295 265.801 295H82.0212C77.2307 295 72.6333 296.44 69.2265 299.009L28.4043 329.783C24.9461 332.39 23 335.944 23 339.652V632.122C23 639.787 31.1479 646 41.199 646H265.801C275.852 646 284 639.787 284 632.122V308.878Z" fill="#F5812E"/>
<path d="M216.5 13.1263C216.5 6.9043 210.58 1.5 202.799 1.5H49.2974C45.6263 1.5 42.1388 2.75187 39.5846 4.93241L5.48784 34.0407C2.90192 36.2483 1.5 39.2057 1.5 42.2346V318.874C1.5 325.096 7.41988 330.5 15.2007 330.5H202.799C210.58 330.5 216.5 325.096 216.5 318.874V13.1263Z" stroke="white" stroke-width="3"/>
</svg>
