<svg width="234" height="1203" viewBox="0 0 234 1203" fill="none" xmlns="http://www.w3.org/2000/svg">
<path d="M-61 17.7971C-61 7.96802 -55.9114 0 -49.6344 0H65.14C68.1318 0 71.0029 1.84716 73.1306 5.14075L98.6249 44.6067C100.785 47.9499 102 52.5076 102 57.263V1185.2C102 1195.03 96.9114 1203 90.6343 1203H-49.6344C-55.9114 1203 -61 1195.03 -61 1185.2V17.7971Z" fill="#F5812E"/>
<path d="M231.5 855.166V1083C231.5 1088.25 227.247 1092.5 222 1092.5H-57.4174C-59.6849 1092.5 -61.8776 1091.69 -63.5994 1090.21L-102.182 1057.15C-104.288 1055.34 -105.5 1052.71 -105.5 1049.93V822C-105.5 816.753 -101.247 812.5 -96 812.5H182.201C184.423 812.5 186.575 813.279 188.283 814.702L228.082 847.868C230.248 849.673 231.5 852.347 231.5 855.166Z" stroke="#A7C986" stroke-width="5"/>
</svg>
