<svg width="772" height="827" viewBox="0 0 772 827" fill="none" xmlns="http://www.w3.org/2000/svg">
<path d="M781 27.3202C781 12.2317 765.422 0 746.206 0H394.841C385.682 0 376.893 2.83556 370.379 7.89153L292.332 68.4754C285.721 73.6076 282 80.604 282 87.904V663.68C282 678.768 297.578 691 316.794 691H746.206C765.422 691 781 678.768 781 663.68V27.3202Z" fill="#F5812E"/>
<path d="M15 767.5V232.647C15 221.798 19.705 211.399 28.0656 203.772L126.758 113.729C134.995 106.214 146.109 102 157.691 102H602.002C626.301 102 646 120.179 646 142.605V767.5C646 789.925 626.301 808.105 602.002 808.105H417.5" stroke="white" stroke-width="29"/>
</svg>
